<?xml version="1.0" encoding="UTF-8"?>
<svg id="Layer_1" data-name="Layer 1" xmlns="http://www.w3.org/2000/svg" viewBox="0 0 946 693">
  <defs>
    <style>
      .cls-1 {
        fill: #006ab6;
      }

      .cls-1, .cls-2, .cls-3 {
        fill-rule: evenodd;
        stroke-width: 0px;
      }

      .cls-2 {
        fill: #e50013;
      }

      .cls-3 {
        fill: #aacc05;
      }
    </style>
  </defs>
  <path class="cls-1" d="m356.35,278.72h227.77s-289.48,379.68-289.48,379.68c-13.61,17.93-40.66,32.6-60.1,32.6l-226.57.06,288.28-379.74c13.61-17.93,40.66-32.6,60.1-32.6Z"/>
  <path class="cls-3" d="m708.98,292.17h227.77s-155.16,200.37-155.16,200.37c-13.78,17.79-40.66,32.6-60.1,32.6l-226.57.06,153.95-200.43c13.71-17.85,40.66-32.6,60.1-32.6Z"/>
  <path class="cls-2" d="m727.97,1.94h-227.77s155.16,200.37,155.16,200.37c13.78,17.79,40.66,32.6,60.09,32.6l226.57.06-153.95-200.43c-13.71-17.85-40.66-32.6-60.1-32.6Z"/>
</svg>