<?xml version="1.0" encoding="UTF-8"?>
<svg id="Layer_1" data-name="Layer 1" xmlns="http://www.w3.org/2000/svg" version="1.1" viewBox="0 0 17.8 17.8">
  <defs>
    <style>
      .cls-1 {
        fill: #000;
        fill-rule: evenodd;
        stroke-width: 0px;
      }
    </style>
  </defs>
  <path class="cls-1" d="M7.7,6l.3.3h4.2c.6,0,1.1.5,1.1,1.1v3.8c0,.6-.5,1.1-1.1,1.1h-6.8c-.6,0-1.1-.5-1.1-1.1v-4.9c0-.6.5-1.1,1.1-1.1h.9c.3,0,.6.1.8.3l.5.5h0ZM3.3,6.3c0-1.2,1-2.2,2.2-2.2h.9c.6,0,1.2.2,1.6.7l.5.5h3.8c1.2,0,2.2,1,2.2,2.2v3.8c0,1.2-1,2.2-2.2,2.2h-6.8c-1.2,0-2.2-1-2.2-2.2v-4.9ZM6.5,7.8c-.3,0-.6.3-.6.6s.3.6.6.6h4.9c.3,0,.6-.3.6-.6s-.3-.6-.6-.6h-4.9Z"/>
</svg>